<?xml version="1.0" encoding="UTF-8" standalone="no"?>
<!-- Created with Inkscape (http://www.inkscape.org/) -->
<svg xmlns:dc="http://purl.org/dc/elements/1.1/" xmlns:cc="http://creativecommons.org/ns#" xmlns:rdf="http://www.w3.org/1999/02/22-rdf-syntax-ns#" xmlns:svg="http://www.w3.org/2000/svg" xmlns="http://www.w3.org/2000/svg" xmlns:sodipodi="http://sodipodi.sourceforge.net/DTD/sodipodi-0.dtd" xmlns:inkscape="http://www.inkscape.org/namespaces/inkscape" id="svg4413" version="1.1" inkscape:version="0.48.5 r10040" viewBox="0 0 113.0311 169.21875" sodipodi:docname="Accident.svg">
  <defs id="defs4415">
    <mask id="SVGID_2_-6" height="155.822" width="103.016" y="45.997" x="198.639" maskUnits="userSpaceOnUse"/>
  </defs>
  <sodipodi:namedview id="base" pagecolor="#ffffff" bordercolor="#666666" borderopacity="1.0" inkscape:pageopacity="0.0" inkscape:pageshadow="2" inkscape:zoom="0.63902013" inkscape:cx="-365.81713" inkscape:cy="-106.93582" inkscape:document-units="px" inkscape:current-layer="layer1" showgrid="false" fit-margin-top="0" fit-margin-left="0" fit-margin-right="0" fit-margin-bottom="0" inkscape:window-width="1920" inkscape:window-height="1181" inkscape:window-x="0" inkscape:window-y="19" inkscape:window-maximized="1"/>
  <metadata id="metadata4418">
    <rdf:RDF>
      <cc:Work rdf:about="">
        <dc:format>image/svg+xml</dc:format>
        <dc:type rdf:resource="http://purl.org/dc/dcmitype/StillImage"/>
        <dc:title/>
      </cc:Work>
    </rdf:RDF>
  </metadata>
  <g inkscape:label="Layer 1" inkscape:groupmode="layer" id="layer1" transform="translate(-250,-509.125)">
    <path style="font-size:40px;font-style:normal;font-variant:normal;font-weight:normal;font-stretch:normal;text-indent:0;text-align:start;text-decoration:none;line-height:125%;letter-spacing:0px;word-spacing:0px;text-transform:none;direction:ltr;block-progression:tb;writing-mode:lr-tb;text-anchor:start;baseline-shift:baseline;color:#000000;fill:#6c361e;fill-opacity:1;stroke:none;stroke-width:10;marker:none;visibility:visible;display:inline;overflow:visible;enable-background:accumulate;font-family:Sans;-inkscape-font-specification:Sans" d="m 306.5,509.125 c -31.14922,0 -56.5,25.35078 -56.5,56.5 0,0.37083 0.025,0.55698 0.0312,0.71875 0.002,0.0492 -4.3e-4,0.18862 0,0.21875 -0.007,0.0685 -0.0312,0.0448 -0.0312,0.375 0,19.63745 13.44091,45.21399 26.46875,66.9375 13.02784,21.72351 26.03125,39.0625 26.03125,39.0625 l 4.0625,5.40625 4,-5.4375 c 0,0 10.21359,-13.98375 21.59375,-32.40625 11.13375,-18.0236 23.38382,-40.14979 28.46875,-58.6875 l 0.1875,0 0.6875,-3.21875 0.0312,-0.0937 0.0312,-0.0937 0,-0.0625 c 3.7e-4,-0.002 0.0378,-0.17831 0.0937,-0.4375 0.009,-0.0395 0.0214,-0.0156 0.0312,-0.0625 l -0.0312,0 c 0.19401,-0.87429 0.38428,-1.74224 0.53125,-2.59375 0.002,-0.01 -0.002,-0.0214 0,-0.0312 0.51077,-2.83391 0.84375,-5.59068 0.84375,-8.28125 0,-0.242 -0.0246,-0.20329 -0.0312,-0.3125 10e-4,-0.0423 -0.002,-0.16376 0,-0.21875 -0.001,-0.006 -6.4e-4,-0.14075 0,-0.125 0.007,-0.18707 0.0312,-0.35342 0.0312,-0.65625 0,-31.14934 -25.38294,-56.5 -56.53125,-56.5 z m 0,10 c 25.74369,0 46.53125,20.75534 46.53125,46.5 0,0.11278 -0.022,0.3696 -0.0312,0.75 l 0,0.15625 0,0.15625 c 0.0154,0.37688 0.0312,0.45894 0.0312,0.25 0,1.89738 -0.24963,4.10825 -0.6875,6.53125 l 0,0.0312 0,0.0312 c -0.13036,0.75721 -0.27964,1.48064 -0.4375,2.1875 l 0,0.0625 c -0.004,0.0187 -0.0753,0.26623 -0.125,0.5 -0.0183,0.0861 -0.01,0.0751 -0.0312,0.1875 -0.12018,0.51308 -0.26946,1.01004 -0.40625,1.5 l 0,0.0312 0,0.0625 c -4.28623,16.54037 -16.52741,39.12125 -27.6875,57.1875 -7.67209,12.41978 -13.47909,20.80768 -17.1875,26.0625 -4.2076,-5.82093 -11.90204,-16.74578 -21.40625,-32.59375 C 272.33633,607.49826 260,581.56405 260,566.9375 c 0,0.21397 0.0197,0.12717 0.0312,-0.3125 l 0,-0.125 0,-0.0937 C 260.02508,565.96951 260,565.70947 260,565.625 c 0,-25.74478 20.75522,-46.5 46.5,-46.5 z" id="path3764" inkscape:connector-curvature="0"/>
    <path style="font-size:40px;font-style:normal;font-weight:normal;line-height:125%;letter-spacing:0px;word-spacing:0px;fill:#d41400;fill-opacity:1;stroke:none;font-family:Sans" inkscape:connector-curvature="0" d="m 356.79195,576.80351 c 0.18,-0.806 0.336,-1.62 0.477,-2.439 0.476,-2.634 0.753,-5.135 0.753,-7.434 0,-0.149 -0.016,-0.292 -0.022,-0.439 0.007,-0.287 0.022,-0.572 0.022,-0.859 0,-28.447 -23.062,-51.508 -51.508,-51.508 -28.447,0 -51.50801,23.061 -51.50801,51.508 0,0.284 0.017,0.563 0.021,0.846 -0.004,0.152 -0.021,0.299 -0.021,0.453 0,34.264 51.50801,103.02 51.50801,103.02 0,0 40.504,-55.317 49.657,-90.638 0.177,-0.634 0.338,-1.275 0.486,-1.92 0.04,-0.21 0.09,-0.4 0.13,-0.59 z" id="path13-0"/>
    <path inkscape:connector-curvature="0" id="path4370" style="font-size:90px;font-style:normal;font-variant:normal;font-weight:900;font-stretch:normal;line-height:125%;letter-spacing:0px;word-spacing:0px;fill:#ffffff;fill-opacity:1;stroke:none;font-family:Arial;-inkscape-font-specification:Arial Heavy" d="m 295.21454,542.42752 22.59879,0 0,17.35172 -4.36389,34.8593 -13.9749,0 -4.26,-34.8593 0,-17.35172 z m 0.77927,57.51005 21.09221,0 0,18.65049 -21.09221,0 0,-18.65049 z"/>
  </g>
</svg>
